<?xml version="1.0" encoding="UTF-8"?>
<!-- Generator: visioncortex VTracer 0.6.12 -->
<svg version="1.1" xmlns="http://www.w3.org/2000/svg" width="1914" height="1420">
<path d="M0 0 C1.099 -0.002 2.199 -0.005 3.332 -0.007 C6.981 -0.013 10.631 -0.012 14.281 -0.012 C16.912 -0.015 19.543 -0.018 22.174 -0.022 C28.559 -0.03 34.945 -0.033 41.33 -0.033 C46.528 -0.034 51.725 -0.036 56.922 -0.039 C71.696 -0.048 86.47 -0.052 101.244 -0.052 C102.039 -0.052 102.834 -0.052 103.653 -0.052 C104.448 -0.052 105.244 -0.052 106.064 -0.051 C118.944 -0.051 131.825 -0.061 144.706 -0.075 C157.969 -0.089 171.233 -0.096 184.496 -0.095 C191.927 -0.095 199.358 -0.097 206.79 -0.108 C213.119 -0.117 219.449 -0.12 225.778 -0.113 C228.999 -0.11 232.219 -0.11 235.44 -0.118 C253.027 -0.157 270.701 -0.032 287.872 4.259 C288.733 4.47 289.595 4.682 290.482 4.9 C317.54 11.904 341.332 25.866 361.435 45.134 C361.874 45.542 361.874 45.542 364.099 47.606 C391.077 73.407 408.495 112.142 409.674 149.51 C409.761 154.948 409.699 160.383 409.622 165.821 C409.607 167.71 409.593 169.599 409.581 171.487 C409.549 176.036 409.497 180.585 409.435 185.134 C409.782 185.133 409.782 185.133 411.542 185.129 C452.853 185.039 494.164 184.971 535.476 184.929 C540.447 184.924 545.418 184.919 550.389 184.914 C550.884 184.913 550.884 184.913 553.388 184.911 C569.367 184.893 585.345 184.862 601.324 184.825 C617.746 184.788 634.167 184.765 650.588 184.757 C660.704 184.752 670.82 184.735 680.935 184.702 C687.892 184.681 694.848 184.675 701.805 184.68 C705.806 184.682 709.807 184.679 713.808 184.657 C735.768 184.543 757.699 185.273 778.622 192.696 C779.597 193.033 780.572 193.369 781.577 193.716 C803.732 201.684 822.074 214.532 839.435 230.134 C840.11 230.736 840.785 231.338 841.481 231.958 C870.495 259.383 884.448 299.308 887.435 338.134 C887.435 351.664 887.435 365.194 887.435 379.134 C1015.475 379.134 1143.515 379.134 1275.435 379.134 C1275.435 411.144 1275.435 443.154 1275.435 476.134 C1146.735 476.134 1018.035 476.134 885.435 476.134 C885.458 518.527 885.481 560.921 885.505 604.599 C885.514 629.809 885.524 655.019 885.531 680.229 C885.535 695.015 885.539 709.801 885.544 724.587 C885.544 726.375 885.545 728.163 885.545 729.952 C885.554 758.445 885.569 786.939 885.587 815.433 C885.606 844.726 885.618 874.019 885.622 903.311 C885.623 907.452 885.624 911.593 885.624 915.733 C885.624 916.548 885.625 917.363 885.625 918.203 C885.627 931.303 885.636 944.403 885.648 957.502 C885.66 970.683 885.664 983.864 885.662 997.044 C885.66 1004.868 885.664 1012.692 885.676 1020.516 C885.685 1026.37 885.682 1032.224 885.676 1038.078 C885.676 1040.438 885.678 1042.798 885.684 1045.157 C885.725 1061.5 885.212 1077.484 881.31 1093.446 C881.099 1094.315 880.888 1095.184 880.67 1096.08 C873.49 1124.137 858.571 1148.554 838.435 1169.134 C838.129 1169.464 838.129 1169.464 836.583 1171.138 C811.102 1198.188 770.64 1213.864 733.998 1215.224 C731.473 1215.258 728.95 1215.262 726.424 1215.254 C725.468 1215.255 724.513 1215.256 723.528 1215.257 C720.353 1215.258 717.178 1215.253 714.002 1215.247 C711.715 1215.247 709.428 1215.247 707.141 1215.248 C700.952 1215.248 694.762 1215.242 688.573 1215.235 C682.098 1215.229 675.622 1215.228 669.146 1215.227 C658.284 1215.224 647.422 1215.218 636.559 1215.209 C625.375 1215.2 614.191 1215.193 603.006 1215.189 C602.316 1215.188 601.626 1215.188 600.914 1215.188 C597.451 1215.187 593.987 1215.185 590.524 1215.184 C561.827 1215.174 533.131 1215.156 504.435 1215.134 C504.513 1149.332 504.593 1083.531 504.678 1017.73 C504.679 1017.239 504.679 1017.239 504.682 1014.754 C504.71 993.387 504.738 972.019 504.766 950.652 C504.779 940.165 504.793 929.679 504.807 919.193 C504.808 918.149 504.81 917.106 504.811 916.031 C504.855 882.531 504.896 849.031 504.936 815.531 C504.976 780.956 505.02 746.38 505.067 711.805 C505.074 706.863 505.081 701.922 505.087 696.98 C505.089 696.008 505.09 695.036 505.091 694.034 C505.112 678.71 505.13 663.385 505.147 648.061 C505.164 632.458 505.184 616.856 505.207 601.254 C505.218 593.752 505.229 586.25 505.236 578.747 C505.293 512.205 505.911 445.677 506.435 379.134 C600.815 379.134 695.195 379.134 792.435 379.134 C791.063 317.395 791.063 317.395 772.286 297.739 C757.347 284.09 740.174 279.991 720.33 279.975 C718.992 279.971 717.654 279.966 716.315 279.961 C712.648 279.947 708.982 279.94 705.315 279.933 C701.356 279.925 697.398 279.911 693.44 279.898 C686.585 279.877 679.731 279.859 672.876 279.843 C662.966 279.82 653.055 279.792 643.145 279.762 C627.065 279.715 610.986 279.672 594.906 279.631 C579.287 279.592 563.669 279.55 548.051 279.506 C547.088 279.503 546.125 279.501 545.132 279.498 C540.301 279.484 535.471 279.47 530.64 279.457 C490.571 279.343 450.503 279.236 410.435 279.134 C410.435 279.735 410.435 280.336 410.435 280.956 C410.452 346.633 410.468 412.31 410.477 477.988 C410.477 478.974 410.477 479.96 410.477 480.976 C410.48 502.427 410.483 523.877 410.486 545.327 C410.487 555.851 410.488 566.376 410.489 576.9 C410.49 577.423 410.49 577.423 410.49 580.073 C410.494 613.811 410.502 647.549 410.511 681.287 C410.52 716.054 410.526 750.82 410.528 785.586 C410.529 790.534 410.529 795.482 410.529 800.429 C410.529 801.403 410.53 802.376 410.53 803.379 C410.531 816.941 410.534 830.504 410.539 844.066 C410.557 891.086 410.557 938.106 410.44 985.126 C410.435 987.096 410.43 989.066 410.425 991.037 C410.391 1005.211 410.335 1019.385 410.219 1033.559 C410.191 1037.069 410.171 1040.579 410.158 1044.089 C410.077 1065.135 409.381 1085.909 402.185 1105.946 C401.886 1106.803 401.587 1107.659 401.279 1108.541 C386.689 1149.293 356.837 1181.525 318.024 1200.29 C302.76 1207.459 287.123 1211.826 270.435 1214.134 C269.793 1214.223 269.152 1214.311 268.491 1214.403 C259.729 1215.439 250.926 1215.298 242.118 1215.302 C240.335 1215.305 238.551 1215.308 236.768 1215.312 C233.038 1215.318 229.309 1215.32 225.58 1215.319 C220.849 1215.319 216.118 1215.333 211.387 1215.35 C207.704 1215.361 204.02 1215.363 200.337 1215.362 C198.595 1215.364 196.854 1215.368 195.112 1215.376 C180.148 1215.437 165.45 1214.522 150.872 1210.884 C149.988 1210.665 149.105 1210.447 148.194 1210.222 C121.138 1203.311 97.438 1189.455 77.435 1170.134 C76.521 1169.283 75.607 1168.432 74.665 1167.556 C45.292 1139.485 30.012 1099.257 28.435 1059.134 C28.273 1051.497 28.338 1043.857 28.367 1036.219 C28.372 1033.964 28.377 1031.708 28.381 1029.453 C28.39 1024.723 28.401 1019.992 28.415 1015.262 C28.435 1008.407 28.445 1001.551 28.452 994.696 C28.461 985.41 28.472 976.123 28.487 966.837 C28.489 965.624 28.491 964.411 28.493 963.162 C28.497 960.653 28.5 958.145 28.504 955.637 C28.511 951.668 28.517 947.698 28.523 943.729 C28.524 943.051 28.525 942.374 28.526 941.676 C28.528 940.293 28.53 938.909 28.532 937.526 C28.607 888.072 28.688 838.618 28.77 789.164 C28.782 781.709 28.795 774.254 28.807 766.799 C28.808 766.387 28.808 766.387 28.811 764.304 C28.855 737.767 28.896 711.231 28.936 684.695 C28.977 657.173 29.02 629.651 29.067 602.129 C29.074 598.195 29.081 594.262 29.087 590.328 C29.089 589.555 29.09 588.781 29.091 587.984 C29.11 577.32 29.126 566.656 29.141 555.991 C29.195 516.705 29.279 477.42 29.435 438.134 C29.44 436.795 29.445 435.456 29.45 434.118 C29.515 417.152 29.601 400.186 29.719 383.221 C29.752 378.453 29.778 373.685 29.799 368.917 C29.823 363.412 29.861 357.907 29.91 352.403 C29.926 350.418 29.936 348.433 29.942 346.449 C29.99 330.398 31.232 314.46 36.122 299.071 C36.376 298.254 36.629 297.436 36.89 296.594 C44.028 274.366 55.488 254.507 71.392 237.388 C72.807 235.826 74.164 234.21 75.47 232.556 C78.406 228.937 81.867 226.112 85.435 223.134 C86.177 222.503 86.92 221.873 87.685 221.224 C116.176 197.653 151.332 184.917 188.286 185.02 C189.676 185.02 191.067 185.02 192.457 185.02 C196.211 185.019 199.964 185.025 203.718 185.032 C207.648 185.039 211.579 185.039 215.509 185.04 C222.943 185.043 230.376 185.052 237.81 185.062 C246.276 185.073 254.743 185.078 263.21 185.083 C280.618 185.094 298.026 185.111 315.435 185.134 C315.39 180.423 315.319 175.714 315.227 171.004 C315.199 169.409 315.178 167.814 315.164 166.219 C314.963 144.954 309.66 127.821 294.532 112.165 C280.925 99.476 263.255 94.804 245.108 94.873 C244.565 94.871 244.565 94.871 241.817 94.861 C238.208 94.851 234.599 94.855 230.99 94.859 C228.39 94.855 225.791 94.85 223.191 94.844 C216.88 94.831 210.569 94.829 204.258 94.831 C199.124 94.833 193.99 94.831 188.856 94.827 C188.489 94.827 188.489 94.827 186.635 94.825 C185.146 94.824 183.658 94.823 182.169 94.822 C168.228 94.811 154.287 94.813 140.346 94.819 C127.617 94.824 114.888 94.813 102.159 94.794 C89.062 94.775 75.964 94.766 62.867 94.77 C55.525 94.772 48.183 94.77 40.841 94.755 C33.934 94.742 27.027 94.745 20.12 94.758 C17.592 94.76 15.065 94.757 12.537 94.749 C-11.689 94.676 -32.04 97.348 -50.44 114.509 C-61.067 125.951 -67.729 141.588 -67.977 157.183 C-67.997 157.972 -68.016 158.762 -68.036 159.576 C-68.097 162.272 -68.142 164.969 -68.187 167.665 C-68.205 168.64 -68.224 169.616 -68.243 170.621 C-68.841 202.411 -68.676 234.215 -68.637 266.01 C-68.626 275.878 -68.621 285.746 -68.616 295.614 C-68.614 300.817 -68.612 306.021 -68.609 311.224 C-68.608 312.273 -68.608 313.322 -68.607 314.402 C-68.602 325.304 -68.594 336.205 -68.586 347.106 C-68.552 393.513 -68.545 439.92 -68.542 486.327 C-68.542 489.987 -68.542 493.648 -68.542 497.308 C-68.535 597.64 -68.63 697.972 -68.89 836.868 C-68.927 855.948 -68.959 875.028 -68.987 894.108 C-69.02 915.85 -69.059 937.593 -69.108 959.336 C-69.133 970.47 -69.155 981.603 -69.169 992.737 C-69.18 1001.995 -69.198 1011.253 -69.225 1020.511 C-69.238 1025.175 -69.248 1029.839 -69.25 1034.503 C-69.251 1038.758 -69.262 1043.013 -69.28 1047.268 C-69.284 1048.79 -69.286 1050.312 -69.284 1051.833 C-69.267 1065.847 -70.352 1079.795 -73.69 1093.446 C-73.902 1094.317 -74.114 1095.187 -74.332 1096.084 C-81.274 1123.18 -95.279 1147.024 -114.565 1167.134 C-115.331 1167.951 -116.097 1168.768 -116.886 1169.61 C-143.664 1197.422 -182.906 1213.913 -221.336 1215.229 C-224.247 1215.267 -227.156 1215.277 -230.066 1215.274 C-230.619 1215.276 -230.619 1215.276 -233.414 1215.283 C-237.087 1215.292 -240.76 1215.293 -244.434 1215.295 C-247.08 1215.299 -249.725 1215.304 -252.371 1215.31 C-259.541 1215.323 -266.711 1215.329 -273.881 1215.334 C-278.369 1215.337 -282.858 1215.341 -287.346 1215.345 C-299.805 1215.358 -312.263 1215.368 -324.722 1215.371 C-325.12 1215.371 -325.12 1215.371 -327.134 1215.372 C-327.532 1215.372 -327.532 1215.372 -329.55 1215.373 C-331.166 1215.373 -332.782 1215.373 -334.398 1215.374 C-335.199 1215.374 -336.001 1215.374 -336.826 1215.375 C-349.789 1215.379 -362.752 1215.396 -375.715 1215.419 C-389.065 1215.443 -402.415 1215.455 -415.766 1215.457 C-423.245 1215.458 -430.723 1215.463 -438.202 1215.481 C-444.575 1215.497 -450.948 1215.502 -457.321 1215.494 C-460.563 1215.49 -463.804 1215.492 -467.045 1215.505 C-516.732 1215.686 -559.337 1201.886 -595.288 1166.45 C-612.786 1147.788 -625.59 1125.331 -632.815 1100.821 C-633.05 1100.041 -633.284 1099.261 -633.525 1098.457 C-634.296 1095.698 -634.936 1092.929 -635.565 1090.134 C-635.822 1089.005 -636.078 1087.875 -636.342 1086.712 C-639.655 1070.227 -638.979 1053.355 -638.928 1036.625 C-638.917 1031.912 -638.924 1027.2 -638.928 1022.487 C-638.934 1013.202 -638.923 1003.916 -638.908 994.631 C-638.89 983.601 -638.889 972.571 -638.889 961.541 C-638.889 940.185 -638.871 918.828 -638.845 897.472 C-638.823 878.952 -638.806 860.431 -638.795 841.911 C-638.793 839.438 -638.791 836.965 -638.79 834.492 C-638.789 833.267 -638.788 832.042 -638.788 830.779 C-638.787 829.554 -638.786 828.328 -638.785 827.065 C-638.784 825.839 -638.784 824.612 -638.783 823.349 C-638.748 767.84 -638.677 712.331 -638.595 656.822 C-638.573 641.347 -638.552 625.872 -638.533 610.397 C-638.477 565.232 -638.404 520.068 -638.293 474.904 C-638.265 463.492 -638.242 452.081 -638.224 440.669 C-638.201 426.163 -638.168 411.658 -638.117 397.153 C-638.093 390.301 -638.074 383.449 -638.068 376.598 C-638.062 370.404 -638.042 364.21 -638.011 358.016 C-638.002 355.804 -637.999 353.591 -638 351.379 C-638.01 333.891 -637.01 316.285 -631.878 299.446 C-631.624 298.591 -631.371 297.735 -631.11 296.854 C-618.588 256.206 -589.758 222.449 -552.503 202.384 C-530.876 191.148 -506.939 184.934 -482.562 185.013 C-481.594 185.013 -480.627 185.012 -479.63 185.011 C-476.411 185.009 -473.191 185.015 -469.971 185.02 C-467.655 185.02 -465.338 185.02 -463.022 185.02 C-456.748 185.019 -450.474 185.025 -444.2 185.032 C-437.637 185.039 -431.075 185.039 -424.513 185.04 C-413.503 185.043 -402.493 185.049 -391.484 185.058 C-380.147 185.067 -368.81 185.075 -357.474 185.079 C-357.124 185.079 -357.124 185.079 -355.354 185.08 C-351.844 185.081 -348.334 185.082 -344.824 185.083 C-315.738 185.094 -286.652 185.112 -257.565 185.134 C-257.565 216.154 -257.565 247.174 -257.565 279.134 C-264.47 279.148 -271.375 279.163 -278.488 279.178 C-300.61 279.227 -322.733 279.29 -344.855 279.363 C-348.294 279.374 -351.733 279.385 -355.173 279.396 C-355.515 279.397 -355.515 279.397 -357.248 279.403 C-368.317 279.438 -379.386 279.463 -390.455 279.484 C-401.823 279.506 -413.191 279.539 -424.559 279.582 C-430.94 279.606 -437.321 279.625 -443.702 279.631 C-449.713 279.637 -455.724 279.657 -461.736 279.688 C-463.937 279.697 -466.138 279.7 -468.339 279.699 C-489.603 279.687 -489.603 279.687 -499.565 283.134 C-500.452 283.424 -501.339 283.714 -502.252 284.013 C-509.254 286.395 -514.799 290.598 -520.565 295.134 C-520.986 295.45 -520.986 295.45 -523.112 297.048 C-533.925 306.242 -541.096 321.202 -542.817 335.177 C-542.982 337.331 -543.093 339.481 -543.181 341.641 C-543.218 342.458 -543.256 343.274 -543.294 344.116 C-543.737 354.747 -543.719 365.385 -543.724 376.023 C-543.728 378.389 -543.733 380.755 -543.739 383.121 C-543.751 388.903 -543.758 394.685 -543.764 400.467 C-543.771 407.409 -543.784 414.35 -543.797 421.292 C-543.821 434.128 -543.84 446.965 -543.856 459.801 C-543.873 472.577 -543.891 485.353 -543.913 498.129 C-543.914 498.929 -543.915 499.728 -543.916 500.552 C-543.923 504.616 -543.93 508.68 -543.937 512.743 C-543.984 541.549 -544.028 570.355 -544.068 599.16 C-544.107 626.84 -544.149 654.52 -544.193 682.2 C-544.194 683.046 -544.196 683.892 -544.197 684.763 C-544.208 691.573 -544.219 698.383 -544.23 705.194 C-544.279 735.138 -544.325 765.082 -544.371 795.027 C-544.378 799.788 -544.385 804.549 -544.393 809.31 C-544.408 819.305 -544.424 829.301 -544.439 839.297 C-544.44 840.045 -544.441 840.793 -544.442 841.564 C-544.467 858.381 -544.491 875.198 -544.508 892.014 C-544.509 892.364 -544.509 892.364 -544.511 894.134 C-544.517 900.431 -544.524 906.727 -544.53 913.023 C-544.546 929.939 -544.574 946.856 -544.616 963.772 C-544.644 974.94 -544.665 986.109 -544.681 997.277 C-544.691 1003.791 -544.705 1010.305 -544.727 1016.819 C-544.747 1022.799 -544.758 1028.779 -544.762 1034.759 C-544.766 1036.929 -544.772 1039.099 -544.782 1041.269 C-544.876 1061.616 -543.179 1079.231 -530.565 1096.134 C-529.835 1096.854 -529.104 1097.575 -528.351 1098.317 C-526.565 1100.134 -526.565 1100.134 -526.565 1102.134 C-525.987 1102.397 -525.408 1102.66 -524.812 1102.931 C-522.452 1104.194 -520.662 1105.65 -518.628 1107.384 C-501.459 1120.849 -481.681 1120.579 -460.904 1120.538 C-458.317 1120.543 -455.73 1120.55 -453.143 1120.559 C-446.874 1120.576 -440.605 1120.577 -434.335 1120.571 C-429.234 1120.567 -424.133 1120.569 -419.032 1120.574 C-418.303 1120.575 -417.574 1120.576 -416.823 1120.576 C-415.342 1120.578 -413.86 1120.579 -412.379 1120.581 C-398.52 1120.595 -384.662 1120.589 -370.803 1120.578 C-358.157 1120.568 -345.51 1120.581 -332.864 1120.605 C-319.841 1120.629 -306.818 1120.639 -293.795 1120.632 C-286.499 1120.629 -279.203 1120.631 -271.906 1120.648 C-265.042 1120.665 -258.179 1120.66 -251.315 1120.641 C-248.807 1120.637 -246.298 1120.64 -243.789 1120.651 C-220.035 1120.743 -200.382 1117.782 -182.292 1101.028 C-177.596 1096.245 -174.219 1091.189 -171.19 1085.259 C-171.03 1084.947 -171.03 1084.947 -170.216 1083.37 C-165.65 1073.898 -164.109 1064.152 -164.275 1053.723 C-164.28 1052.644 -164.284 1051.565 -164.289 1050.454 C-164.306 1046.881 -164.345 1043.309 -164.383 1039.736 C-164.398 1037.157 -164.412 1034.578 -164.424 1031.998 C-164.444 1027.916 -164.464 1023.834 -164.492 1019.752 C-164.557 1010.124 -164.579 1000.498 -164.564 990.871 C-164.563 990.193 -164.562 989.514 -164.561 988.815 C-164.555 985.335 -164.549 981.854 -164.542 978.373 C-164.534 974.035 -164.528 969.696 -164.523 965.357 C-164.523 964.99 -164.523 964.99 -164.521 963.129 C-164.519 961.627 -164.517 960.125 -164.516 958.623 C-164.511 954.777 -164.506 950.93 -164.502 947.083 C-164.493 940.546 -164.485 934.009 -164.477 927.472 C-164.476 926.627 -164.475 925.783 -164.474 924.913 C-164.473 924.063 -164.472 923.212 -164.471 922.336 C-164.395 859.691 -164.313 797.045 -164.23 734.4 C-164.218 725.075 -164.205 715.751 -164.193 706.426 C-164.192 705.397 -164.19 704.367 -164.189 703.306 C-164.145 670.168 -164.104 637.029 -164.064 603.89 C-164.023 569.516 -163.98 535.142 -163.933 500.769 C-163.926 495.848 -163.919 490.928 -163.913 486.008 C-163.911 485.04 -163.91 484.072 -163.909 483.076 C-163.89 469.765 -163.874 456.453 -163.859 443.142 C-163.806 395.209 -163.726 347.275 -163.581 299.342 C-163.57 295.826 -163.56 292.31 -163.55 288.795 C-163.488 267.348 -163.415 245.901 -163.307 224.454 C-163.298 222.75 -163.289 221.045 -163.281 219.34 C-163.279 218.922 -163.279 218.922 -163.268 216.805 C-163.24 211.014 -163.219 205.224 -163.201 199.433 C-163.18 192.471 -163.148 185.508 -163.104 178.546 C-163.081 175.022 -163.063 171.499 -163.058 167.975 C-163.019 149.628 -162.482 131.707 -156.878 114.071 C-156.624 113.254 -156.371 112.436 -156.11 111.594 C-148.639 88.331 -136.392 67.857 -119.565 50.134 C-119.331 49.883 -119.331 49.883 -118.145 48.614 C-105.673 35.344 -91.701 25.496 -75.565 17.134 C-75.262 16.974 -75.262 16.974 -73.724 16.165 C-50.918 4.323 -25.504 -0.039 0 0 Z M161.247 285.759 C160.914 285.933 160.914 285.933 159.227 286.812 C143.23 295.452 132.063 309.213 126.668 326.606 C123.892 337.04 123.993 347.227 124.002 357.957 C123.993 360.08 123.983 362.203 123.971 364.327 C123.944 370.192 123.934 376.058 123.929 381.924 C123.92 387.716 123.897 393.509 123.875 399.302 C123.825 412.916 123.795 426.53 123.772 440.144 C123.753 450.842 123.73 461.54 123.702 472.237 C123.605 510.485 123.537 548.732 123.486 586.98 C123.481 590.969 123.476 594.959 123.47 598.948 C123.469 599.953 123.468 600.959 123.466 601.994 C123.444 618.57 123.416 635.146 123.387 651.722 C123.383 654.103 123.379 656.484 123.374 658.865 C123.372 660.053 123.37 661.241 123.368 662.466 C123.277 713.793 123.205 765.121 123.163 816.448 C123.159 821.482 123.155 826.516 123.15 831.55 C123.149 832.794 123.148 834.038 123.147 835.32 C123.132 854.193 123.106 873.067 123.075 891.94 C123.039 913.638 123.019 935.335 123.016 957.033 C123.015 969.355 123.002 981.677 122.974 993.999 C122.956 1002.311 122.953 1010.622 122.961 1018.934 C122.966 1023.692 122.964 1028.449 122.944 1033.207 C122.927 1037.552 122.928 1041.897 122.943 1046.243 C122.946 1047.803 122.941 1049.363 122.929 1050.923 C122.792 1070.116 128.13 1086.639 141.72 1100.446 C142.616 1101.333 143.512 1102.22 144.435 1103.134 C145.093 1103.814 145.752 1104.495 146.431 1105.196 C161.534 1119.748 182.099 1121.285 201.919 1121.302 C203.306 1121.305 204.693 1121.308 206.08 1121.312 C208.975 1121.318 211.869 1121.32 214.764 1121.319 C218.432 1121.319 222.101 1121.333 225.769 1121.35 C228.631 1121.361 231.494 1121.363 234.356 1121.362 C236.353 1121.364 238.35 1121.375 240.347 1121.386 C261.914 1121.333 280.754 1116.86 296.622 1101.571 C308.864 1089.206 315.572 1072.846 315.593 1055.496 C315.595 1055.058 315.595 1055.058 315.608 1052.839 C315.623 1049.872 315.632 1046.906 315.64 1043.939 C315.649 1041.782 315.659 1039.625 315.67 1037.469 C315.697 1031.46 315.718 1025.452 315.738 1019.444 C315.753 1014.858 315.771 1010.273 315.79 1005.687 C315.854 989.501 315.909 973.315 315.96 957.129 C315.962 956.348 315.964 955.567 315.967 954.763 C315.969 953.98 315.972 953.196 315.974 952.39 C315.997 945.283 316.021 938.177 316.045 931.071 C316.354 840.344 316.471 749.616 316.435 279.134 C299.335 279.063 282.236 279.011 265.137 278.978 C257.196 278.963 249.255 278.942 241.314 278.907 C234.387 278.877 227.46 278.858 220.533 278.851 C216.871 278.848 213.208 278.839 209.546 278.817 C205.441 278.792 201.337 278.792 197.233 278.793 C196.04 278.782 194.846 278.772 193.617 278.76 C182.408 278.801 171.232 280.425 161.247 285.759 Z M600.435 476.134 C600.339 522.412 600.243 568.691 600.149 614.969 C600.147 615.664 600.146 616.358 600.144 617.073 C600.114 632.189 600.083 647.304 600.052 662.42 C600.037 669.841 600.022 677.263 600.007 684.685 C600.006 685.423 600.004 686.161 600.003 686.922 C599.958 709.044 599.912 731.166 599.866 753.287 C599.795 787.452 599.725 821.616 599.657 855.78 C599.655 857.175 599.652 858.57 599.649 859.966 C599.476 947.022 599.351 1034.078 599.435 1121.134 C599.805 1121.135 599.805 1121.135 601.678 1121.14 C602.205 1121.142 602.205 1121.142 604.873 1121.149 C606.069 1121.153 607.265 1121.156 608.497 1121.16 C611.2 1121.167 613.903 1121.175 616.605 1121.183 C623.33 1121.202 630.055 1121.221 636.78 1121.24 C640.558 1121.25 644.337 1121.261 648.115 1121.271 C648.489 1121.272 648.489 1121.272 650.377 1121.278 C659.92 1121.304 669.463 1121.337 679.006 1121.378 C685.346 1121.405 691.687 1121.416 698.027 1121.42 C700.751 1121.425 703.474 1121.434 706.198 1121.45 C709.689 1121.471 713.18 1121.477 716.671 1121.473 C718.534 1121.474 720.397 1121.49 722.259 1121.507 C733.466 1121.466 744.64 1119.841 754.622 1114.509 C755.289 1114.161 755.955 1113.813 756.642 1113.455 C772.712 1104.776 783.564 1091.108 789.204 1073.768 C792.32 1062.41 791.842 1050.972 791.795 1039.286 C791.797 1036.853 791.799 1034.421 791.803 1031.988 C791.808 1026.714 791.804 1021.439 791.792 1016.165 C791.774 1008.322 791.773 1000.479 791.776 992.636 C791.78 979.44 791.77 966.245 791.752 953.049 C791.734 939.989 791.722 926.929 791.719 913.869 C791.719 913.057 791.719 912.244 791.719 911.406 C791.718 907.278 791.717 903.149 791.716 899.021 C791.709 869.8 791.689 840.58 791.661 811.36 C791.633 782.977 791.612 754.595 791.599 726.213 C791.599 725.338 791.599 724.462 791.598 723.561 C791.594 714.77 791.59 705.98 791.587 697.19 C791.579 679.284 791.571 661.378 791.562 643.472 C791.561 642.648 791.561 641.825 791.56 640.977 C791.548 615.75 791.531 590.524 791.512 565.298 C791.511 564.94 791.511 564.94 791.51 563.128 C791.487 534.13 791.46 505.132 791.435 476.134 C728.405 476.134 665.375 476.134 600.435 476.134 Z " fill="#BC1D2C" transform="translate(638.5654449462891,-0.1337127685546875)"/>
<path d="M0 0 C1.099 -0.002 2.199 -0.005 3.332 -0.007 C6.981 -0.013 10.631 -0.012 14.281 -0.012 C16.912 -0.015 19.543 -0.018 22.174 -0.022 C28.559 -0.03 34.945 -0.033 41.33 -0.033 C46.528 -0.034 51.725 -0.036 56.922 -0.039 C71.696 -0.048 86.47 -0.052 101.244 -0.052 C102.039 -0.052 102.834 -0.052 103.653 -0.052 C104.448 -0.052 105.244 -0.052 106.064 -0.051 C118.944 -0.051 131.825 -0.061 144.706 -0.075 C157.969 -0.089 171.233 -0.096 184.496 -0.095 C191.927 -0.095 199.358 -0.097 206.79 -0.108 C213.119 -0.117 219.449 -0.12 225.778 -0.113 C228.999 -0.11 232.219 -0.11 235.44 -0.118 C253.027 -0.157 270.701 -0.032 287.872 4.259 C288.733 4.47 289.595 4.682 290.482 4.9 C317.54 11.904 341.332 25.866 361.435 45.134 C361.874 45.542 361.874 45.542 364.099 47.606 C391.322 73.641 403.677 107.671 409.435 144.134 C409.435 157.664 409.435 171.194 409.435 185.134 C378.415 185.134 347.395 185.134 315.435 185.134 C315.105 173.584 314.775 162.034 314.435 150.134 C309.559 131.849 302.378 115.835 285.837 105.513 C272.6 98.047 260.293 94.815 245.108 94.873 C244.565 94.871 244.565 94.871 241.817 94.861 C238.208 94.851 234.599 94.855 230.99 94.859 C228.39 94.855 225.791 94.85 223.191 94.844 C216.88 94.831 210.569 94.829 204.258 94.831 C199.124 94.833 193.99 94.831 188.856 94.827 C188.489 94.827 188.489 94.827 186.635 94.825 C185.146 94.824 183.658 94.823 182.169 94.822 C168.228 94.811 154.287 94.813 140.346 94.819 C127.617 94.824 114.888 94.813 102.159 94.794 C89.062 94.775 75.964 94.766 62.867 94.77 C55.525 94.772 48.183 94.77 40.841 94.755 C33.934 94.742 27.027 94.745 20.12 94.758 C17.592 94.76 15.065 94.757 12.537 94.749 C-11.689 94.676 -32.04 97.348 -50.44 114.509 C-61.067 125.951 -67.729 141.588 -67.977 157.183 C-67.997 157.972 -68.016 158.762 -68.036 159.576 C-68.097 162.272 -68.142 164.969 -68.187 167.665 C-68.205 168.64 -68.224 169.616 -68.243 170.621 C-68.841 202.411 -68.676 234.215 -68.637 266.01 C-68.626 275.878 -68.621 285.746 -68.616 295.614 C-68.614 300.817 -68.612 306.021 -68.609 311.224 C-68.608 312.273 -68.608 313.322 -68.607 314.402 C-68.602 325.304 -68.594 336.205 -68.586 347.106 C-68.552 393.513 -68.545 439.92 -68.542 486.327 C-68.542 489.987 -68.542 493.648 -68.542 497.308 C-68.535 597.64 -68.63 697.972 -68.89 836.868 C-68.927 855.948 -68.959 875.028 -68.987 894.108 C-69.02 915.85 -69.059 937.593 -69.108 959.336 C-69.133 970.47 -69.155 981.603 -69.169 992.737 C-69.18 1001.995 -69.198 1011.253 -69.225 1020.511 C-69.238 1025.175 -69.248 1029.839 -69.25 1034.503 C-69.251 1038.758 -69.262 1043.013 -69.28 1047.268 C-69.284 1048.79 -69.286 1050.312 -69.284 1051.833 C-69.267 1065.847 -70.352 1079.795 -73.69 1093.446 C-73.902 1094.317 -74.114 1095.187 -74.332 1096.084 C-81.274 1123.18 -95.279 1147.024 -114.565 1167.134 C-115.331 1167.951 -116.097 1168.768 -116.886 1169.61 C-143.664 1197.422 -182.906 1213.913 -221.336 1215.229 C-224.247 1215.267 -227.156 1215.277 -230.066 1215.274 C-230.619 1215.276 -230.619 1215.276 -233.414 1215.283 C-237.087 1215.292 -240.76 1215.293 -244.434 1215.295 C-247.08 1215.299 -249.725 1215.304 -252.371 1215.31 C-259.541 1215.323 -266.711 1215.329 -273.881 1215.334 C-278.369 1215.337 -282.858 1215.341 -287.346 1215.345 C-299.805 1215.358 -312.263 1215.368 -324.722 1215.371 C-325.12 1215.371 -325.12 1215.371 -327.134 1215.372 C-327.532 1215.372 -327.532 1215.372 -329.55 1215.373 C-331.166 1215.373 -332.782 1215.373 -334.398 1215.374 C-335.199 1215.374 -336.001 1215.374 -336.826 1215.375 C-349.789 1215.379 -362.752 1215.396 -375.715 1215.419 C-389.065 1215.443 -402.415 1215.455 -415.766 1215.457 C-423.245 1215.458 -430.723 1215.463 -438.202 1215.481 C-444.575 1215.497 -450.948 1215.502 -457.321 1215.494 C-460.563 1215.49 -463.804 1215.492 -467.045 1215.505 C-516.732 1215.686 -559.337 1201.886 -595.288 1166.45 C-612.786 1147.788 -625.59 1125.331 -632.815 1100.821 C-633.05 1100.041 -633.284 1099.261 -633.525 1098.457 C-634.296 1095.698 -634.936 1092.929 -635.565 1090.134 C-635.822 1089.005 -636.078 1087.875 -636.342 1086.712 C-639.655 1070.227 -638.979 1053.355 -638.928 1036.625 C-638.917 1031.912 -638.924 1027.2 -638.928 1022.487 C-638.934 1013.202 -638.923 1003.916 -638.908 994.631 C-638.89 983.601 -638.889 972.571 -638.889 961.541 C-638.889 940.185 -638.871 918.828 -638.845 897.472 C-638.823 878.952 -638.806 860.431 -638.795 841.911 C-638.793 839.438 -638.791 836.965 -638.79 834.492 C-638.789 833.267 -638.788 832.042 -638.788 830.779 C-638.787 829.554 -638.786 828.328 -638.785 827.065 C-638.784 825.839 -638.784 824.612 -638.783 823.349 C-638.748 767.84 -638.677 712.331 -638.595 656.822 C-638.573 641.347 -638.552 625.872 -638.533 610.397 C-638.477 565.232 -638.404 520.068 -638.293 474.904 C-638.265 463.492 -638.242 452.081 -638.224 440.669 C-638.201 426.163 -638.168 411.658 -638.117 397.153 C-638.093 390.301 -638.074 383.449 -638.068 376.598 C-638.062 370.404 -638.042 364.21 -638.011 358.016 C-638.002 355.804 -637.999 353.591 -638 351.379 C-638.01 333.891 -637.01 316.285 -631.878 299.446 C-631.624 298.591 -631.371 297.735 -631.11 296.854 C-618.588 256.206 -589.758 222.449 -552.503 202.384 C-530.876 191.148 -506.939 184.934 -482.562 185.013 C-481.594 185.013 -480.627 185.012 -479.63 185.011 C-476.411 185.009 -473.191 185.015 -469.971 185.02 C-467.655 185.02 -465.338 185.02 -463.022 185.02 C-456.748 185.019 -450.474 185.025 -444.2 185.032 C-437.637 185.039 -431.075 185.039 -424.513 185.04 C-413.503 185.043 -402.493 185.049 -391.484 185.058 C-380.147 185.067 -368.81 185.075 -357.474 185.079 C-357.124 185.079 -357.124 185.079 -355.354 185.08 C-351.844 185.081 -348.334 185.082 -344.824 185.083 C-315.738 185.094 -286.652 185.112 -257.565 185.134 C-257.565 216.154 -257.565 247.174 -257.565 279.134 C-264.47 279.148 -271.375 279.163 -278.488 279.178 C-300.61 279.227 -322.733 279.29 -344.855 279.363 C-348.294 279.374 -351.733 279.385 -355.173 279.396 C-355.515 279.397 -355.515 279.397 -357.248 279.403 C-368.317 279.438 -379.386 279.463 -390.455 279.484 C-401.823 279.506 -413.191 279.539 -424.559 279.582 C-430.94 279.606 -437.321 279.625 -443.702 279.631 C-449.713 279.637 -455.724 279.657 -461.736 279.688 C-463.937 279.697 -466.138 279.7 -468.339 279.699 C-489.603 279.687 -489.603 279.687 -499.565 283.134 C-500.452 283.424 -501.339 283.714 -502.252 284.013 C-509.254 286.395 -514.799 290.598 -520.565 295.134 C-520.986 295.45 -520.986 295.45 -523.112 297.048 C-533.925 306.242 -541.096 321.202 -542.817 335.177 C-542.982 337.331 -543.093 339.481 -543.181 341.641 C-543.218 342.458 -543.256 343.274 -543.294 344.116 C-543.737 354.747 -543.719 365.385 -543.724 376.023 C-543.728 378.389 -543.733 380.755 -543.739 383.121 C-543.751 388.903 -543.758 394.685 -543.764 400.467 C-543.771 407.409 -543.784 414.35 -543.797 421.292 C-543.821 434.128 -543.84 446.965 -543.856 459.801 C-543.873 472.577 -543.891 485.353 -543.913 498.129 C-543.914 498.929 -543.915 499.728 -543.916 500.552 C-543.923 504.616 -543.93 508.68 -543.937 512.743 C-543.984 541.549 -544.028 570.355 -544.068 599.16 C-544.107 626.84 -544.149 654.52 -544.193 682.2 C-544.194 683.046 -544.196 683.892 -544.197 684.763 C-544.208 691.573 -544.219 698.383 -544.23 705.194 C-544.279 735.138 -544.325 765.082 -544.371 795.027 C-544.378 799.788 -544.385 804.549 -544.393 809.31 C-544.408 819.305 -544.424 829.301 -544.439 839.297 C-544.44 840.045 -544.441 840.793 -544.442 841.564 C-544.467 858.381 -544.491 875.198 -544.508 892.014 C-544.509 892.364 -544.509 892.364 -544.511 894.134 C-544.517 900.431 -544.524 906.727 -544.53 913.023 C-544.546 929.939 -544.574 946.856 -544.616 963.772 C-544.644 974.94 -544.665 986.109 -544.681 997.277 C-544.691 1003.791 -544.705 1010.305 -544.727 1016.819 C-544.747 1022.799 -544.758 1028.779 -544.762 1034.759 C-544.766 1036.929 -544.772 1039.099 -544.782 1041.269 C-544.876 1061.616 -543.179 1079.231 -530.565 1096.134 C-529.835 1096.854 -529.104 1097.575 -528.351 1098.317 C-526.565 1100.134 -526.565 1100.134 -526.565 1102.134 C-525.987 1102.397 -525.408 1102.66 -524.812 1102.931 C-522.452 1104.194 -520.662 1105.65 -518.628 1107.384 C-501.459 1120.849 -481.681 1120.579 -460.904 1120.538 C-458.317 1120.543 -455.73 1120.55 -453.143 1120.559 C-446.874 1120.576 -440.605 1120.577 -434.335 1120.571 C-429.234 1120.567 -424.133 1120.569 -419.032 1120.574 C-418.303 1120.575 -417.574 1120.576 -416.823 1120.576 C-415.342 1120.578 -413.86 1120.579 -412.379 1120.581 C-398.52 1120.595 -384.662 1120.589 -370.803 1120.578 C-358.157 1120.568 -345.51 1120.581 -332.864 1120.605 C-319.841 1120.629 -306.818 1120.639 -293.795 1120.632 C-286.499 1120.629 -279.203 1120.631 -271.906 1120.648 C-265.042 1120.665 -258.179 1120.66 -251.315 1120.641 C-248.807 1120.637 -246.298 1120.64 -243.789 1120.651 C-220.035 1120.743 -200.382 1117.782 -182.292 1101.028 C-177.596 1096.245 -174.219 1091.189 -171.19 1085.259 C-171.03 1084.947 -171.03 1084.947 -170.216 1083.37 C-165.65 1073.898 -164.109 1064.152 -164.275 1053.723 C-164.28 1052.644 -164.284 1051.565 -164.289 1050.454 C-164.306 1046.881 -164.345 1043.309 -164.383 1039.736 C-164.398 1037.157 -164.412 1034.578 -164.424 1031.998 C-164.444 1027.916 -164.464 1023.834 -164.492 1019.752 C-164.557 1010.124 -164.579 1000.498 -164.564 990.871 C-164.563 990.193 -164.562 989.514 -164.561 988.815 C-164.555 985.335 -164.549 981.854 -164.542 978.373 C-164.534 974.035 -164.528 969.696 -164.523 965.357 C-164.523 964.99 -164.523 964.99 -164.521 963.129 C-164.519 961.627 -164.517 960.125 -164.516 958.623 C-164.511 954.777 -164.506 950.93 -164.502 947.083 C-164.493 940.546 -164.485 934.009 -164.477 927.472 C-164.476 926.627 -164.475 925.783 -164.474 924.913 C-164.473 924.063 -164.472 923.212 -164.471 922.336 C-164.395 859.691 -164.313 797.045 -164.23 734.4 C-164.218 725.075 -164.205 715.751 -164.193 706.426 C-164.192 705.397 -164.19 704.367 -164.189 703.306 C-164.145 670.168 -164.104 637.029 -164.064 603.89 C-164.023 569.516 -163.98 535.142 -163.933 500.769 C-163.926 495.848 -163.919 490.928 -163.913 486.008 C-163.911 485.04 -163.91 484.072 -163.909 483.076 C-163.89 469.765 -163.874 456.453 -163.859 443.142 C-163.806 395.209 -163.726 347.275 -163.581 299.342 C-163.57 295.826 -163.56 292.31 -163.55 288.795 C-163.488 267.348 -163.415 245.901 -163.307 224.454 C-163.298 222.75 -163.289 221.045 -163.281 219.34 C-163.279 218.922 -163.279 218.922 -163.268 216.805 C-163.24 211.014 -163.219 205.224 -163.201 199.433 C-163.18 192.471 -163.148 185.508 -163.104 178.546 C-163.081 175.022 -163.063 171.499 -163.058 167.975 C-163.019 149.628 -162.482 131.707 -156.878 114.071 C-156.624 113.254 -156.371 112.436 -156.11 111.594 C-148.639 88.331 -136.392 67.857 -119.565 50.134 C-119.331 49.883 -119.331 49.883 -118.145 48.614 C-105.673 35.344 -91.701 25.496 -75.565 17.134 C-75.262 16.974 -75.262 16.974 -73.724 16.165 C-50.918 4.323 -25.504 -0.039 0 0 Z " fill="#6253A2" transform="translate(638.5654449462891,-0.1337127685546875)"/>
<path d="M0 0 C253.77 0 507.54 0 769 0 C769 32.01 769 64.02 769 97 C640.3 97 511.6 97 379 97 C379.023 139.393 379.046 181.787 379.07 225.465 C379.08 250.675 379.089 275.885 379.096 301.095 C379.1 315.881 379.105 330.667 379.109 345.453 C379.11 347.241 379.11 349.03 379.111 350.818 C379.119 379.312 379.134 407.805 379.153 436.299 C379.171 465.592 379.184 494.885 379.188 524.178 C379.188 528.318 379.189 532.459 379.19 536.6 C379.19 537.007 379.19 537.007 379.19 539.069 C379.193 552.169 379.202 565.269 379.214 578.369 C379.225 591.549 379.23 604.73 379.227 617.911 C379.225 625.734 379.23 633.558 379.242 641.382 C379.25 647.236 379.248 653.09 379.242 658.945 C379.241 661.304 379.243 663.664 379.25 666.024 C379.291 682.366 378.777 698.35 374.875 714.312 C374.769 714.747 374.769 714.747 374.236 716.946 C367.055 745.003 352.137 769.42 332 790 C331.389 790.661 330.778 791.323 330.148 792.004 C304.667 819.054 264.206 834.73 227.563 836.09 C225.038 836.125 222.515 836.129 219.99 836.12 C219.034 836.121 218.078 836.122 217.093 836.123 C213.918 836.124 210.743 836.119 207.568 836.114 C205.281 836.113 202.994 836.113 200.706 836.114 C194.517 836.114 188.328 836.108 182.139 836.101 C175.663 836.095 169.187 836.095 162.712 836.093 C151.849 836.091 140.987 836.084 130.125 836.075 C118.94 836.066 107.756 836.059 96.572 836.055 C95.881 836.055 95.191 836.054 94.48 836.054 C91.016 836.053 87.553 836.052 84.089 836.05 C55.393 836.04 26.696 836.022 -2 836 C-1.921 770.199 -1.842 704.397 -1.756 638.596 C-1.755 637.614 -1.754 636.632 -1.752 635.62 C-1.725 614.253 -1.697 592.885 -1.669 571.518 C-1.655 561.032 -1.641 550.545 -1.628 540.059 C-1.626 539.016 -1.625 537.972 -1.624 536.898 C-1.58 503.397 -1.539 469.897 -1.499 436.397 C-1.458 401.822 -1.414 367.247 -1.367 332.671 C-1.36 327.73 -1.354 322.788 -1.347 317.846 C-1.346 316.874 -1.344 315.902 -1.343 314.901 C-1.322 299.576 -1.305 284.252 -1.288 268.927 C-1.271 253.325 -1.251 237.722 -1.227 222.12 C-1.216 214.618 -1.205 207.116 -1.199 199.614 C-1.141 133.071 -0.524 66.543 0 0 Z M94 97 C93.904 143.279 93.808 189.557 93.714 235.836 C93.713 236.53 93.711 237.224 93.71 237.939 C93.679 253.055 93.648 268.17 93.618 283.286 C93.603 290.708 93.588 298.129 93.573 305.551 C93.571 306.289 93.57 307.027 93.568 307.788 C93.523 329.91 93.478 352.032 93.432 374.154 C93.361 408.318 93.291 442.482 93.223 476.646 C93.22 478.041 93.217 479.437 93.215 480.832 C93.042 567.888 92.917 654.944 93 742 C93.37 742.001 93.37 742.001 95.243 742.006 C95.77 742.008 95.77 742.008 98.438 742.016 C99.634 742.019 100.83 742.022 102.063 742.026 C104.765 742.034 107.468 742.041 110.171 742.049 C116.896 742.068 123.62 742.088 130.345 742.106 C134.124 742.117 137.902 742.127 141.681 742.138 C142.054 742.139 142.054 742.139 143.943 742.144 C153.486 742.171 163.029 742.203 172.571 742.244 C178.912 742.271 185.252 742.282 191.592 742.286 C194.316 742.291 197.039 742.3 199.763 742.317 C203.254 742.338 206.745 742.343 210.236 742.339 C212.099 742.341 213.962 742.356 215.825 742.373 C227.032 742.333 238.205 740.707 248.188 735.375 C248.854 735.027 249.521 734.68 250.207 734.321 C266.278 725.643 277.13 711.974 282.769 694.634 C285.885 683.277 285.408 671.839 285.361 660.152 C285.362 657.719 285.365 655.287 285.369 652.854 C285.374 647.58 285.37 642.305 285.358 637.031 C285.339 629.188 285.339 621.345 285.341 613.502 C285.345 600.307 285.335 587.111 285.317 573.916 C285.299 560.856 285.288 547.796 285.285 534.736 C285.284 533.923 285.284 533.11 285.284 532.272 C285.283 528.144 285.282 524.015 285.281 519.887 C285.275 490.667 285.255 461.446 285.226 432.226 C285.199 403.844 285.178 375.462 285.165 347.079 C285.164 346.204 285.164 345.329 285.164 344.427 C285.16 335.637 285.156 326.846 285.152 318.056 C285.144 300.15 285.136 282.244 285.127 264.338 C285.127 263.515 285.126 262.691 285.126 261.843 C285.113 236.617 285.097 211.39 285.077 186.164 C285.077 185.806 285.077 185.806 285.075 183.994 C285.052 154.996 285.026 125.998 285 97 C221.97 97 158.94 97 94 97 Z " fill="#8AC43E" transform="translate(1145,379)"/>
<path d="M0 0 C96.69 0 193.38 0 293 0 C293 31.68 293 63.36 293 96 C227.33 96 161.66 96 94 96 C94.13 193.978 94.13 193.978 94.209 234.918 C94.227 244.288 94.245 253.659 94.262 263.029 C94.265 264.203 94.267 265.378 94.269 266.587 C94.304 285.53 94.329 304.473 94.35 323.415 C94.372 342.865 94.405 362.315 94.449 381.765 C94.475 393.76 94.493 405.755 94.499 417.75 C94.505 425.983 94.521 434.216 94.546 442.449 C94.56 447.194 94.569 451.939 94.565 456.684 C94.562 461.039 94.572 465.393 94.593 469.747 C94.598 471.313 94.599 472.878 94.593 474.444 C94.553 487.648 95.205 501.643 101.75 513.438 C102.101 514.099 102.451 514.761 102.813 515.443 C105.692 520.741 108.874 525.581 113 530 C113.619 530.672 114.237 531.343 114.875 532.035 C119.376 536.46 124.293 539.471 129.875 542.312 C130.51 542.638 131.146 542.964 131.801 543.299 C142.155 548.308 152.056 549.445 163.468 549.432 C164.888 549.441 166.308 549.452 167.729 549.463 C171.55 549.491 175.371 549.5 179.193 549.506 C183.2 549.516 187.206 549.542 191.213 549.566 C198.784 549.61 206.356 549.638 213.927 549.661 C224.17 549.694 234.412 549.749 244.654 549.803 C260.769 549.888 276.885 549.941 293 550 C293 581.02 293 612.04 293 644 C256.15 644.121 256.15 644.121 240.607 644.146 C229.912 644.164 219.216 644.185 208.52 644.226 C200.728 644.256 192.935 644.276 185.143 644.282 C181.024 644.286 176.906 644.295 172.788 644.317 C152.799 644.42 133.207 644.438 113.938 638.312 C113.528 638.185 113.528 638.185 111.454 637.54 C71.416 624.654 37.277 596.511 18 559 C3.269 529.525 -0.347 499.34 -0.241 466.708 C-0.241 464.675 -0.243 462.642 -0.246 460.61 C-0.25 455.097 -0.242 449.586 -0.232 444.074 C-0.223 438.102 -0.226 432.13 -0.228 426.158 C-0.229 415.167 -0.221 404.175 -0.209 393.184 C-0.198 383.04 -0.192 372.897 -0.19 362.753 C-0.19 362.078 -0.189 361.403 -0.189 360.708 C-0.189 357.279 -0.188 353.851 -0.187 350.422 C-0.183 326.205 -0.17 301.987 -0.151 277.769 C-0.132 254.257 -0.118 230.745 -0.11 207.233 C-0.109 205.751 -0.109 204.27 -0.108 202.789 C-0.104 191.319 -0.1 179.85 -0.096 168.38 C-0.077 112.253 -0.037 56.127 0 0 Z " fill="#26A9E0" transform="translate(1619,570)"/>
<path d="M0 0 C6.6 0 13.2 0 20 0 C26.211 7.188 26.211 7.188 27.789 10.598 C30.001 15.107 32.654 19.201 35.438 23.375 C36.362 24.802 37.284 26.23 38.203 27.66 C38.663 28.373 39.122 29.086 39.596 29.821 C40.059 30.54 40.523 31.259 41 32 C42.895 34.938 44.791 37.876 46.688 40.812 C47.102 41.457 47.517 42.101 47.945 42.765 C51.9 48.888 55.955 54.932 60 61 C60.33 40.87 60.66 20.74 61 0 C68.26 0 75.52 0 83 0 C83 35.64 83 71.28 83 108 C63 108 63 108 58.766 104.504 C57.433 102.159 57.433 102.159 56.25 99.562 C55.24 97.722 54.227 95.884 53.211 94.047 C52.7 93.065 52.189 92.084 51.663 91.072 C48.714 85.624 45.26 80.497 41.875 75.312 C40.62 73.352 39.368 71.389 38.117 69.426 C33.104 61.601 28.049 53.802 23 46 C22.67 66.46 22.34 86.92 22 108 C14.74 108 7.48 108 0 108 C0 72.36 0 36.72 0 0 Z " fill="#231F20" transform="translate(865,1312)"/>
<path d="M0 0 C59.864 0 59.864 0 69.281 9.012 C75.813 16.568 78.505 25.269 78.234 35.172 C77.41 45.122 73.383 51.316 66 58 C61.523 61 61.523 61 59 61 C60.984 64.847 62.969 68.694 64.956 72.54 C65.65 73.884 66.344 75.229 67.037 76.573 C71.516 85.254 76.043 93.901 80.777 102.445 C82 105 82 105 82 108 C73.75 108 65.5 108 57 108 C55.646 104.98 54.293 101.959 52.898 98.848 C51.544 95.929 50.172 93.02 48.797 90.111 C47.854 88.09 46.931 86.059 46.028 84.02 C44.724 81.081 43.351 78.184 41.961 75.285 C41.574 74.372 41.187 73.458 40.788 72.517 C39.517 69.969 39.517 69.969 36 66 C33.69 65.835 33.69 65.835 22 65 C22 79.19 22 93.38 22 108 C14.74 108 7.48 108 0 108 C0 72.36 0 36.72 0 0 Z M22 19 C22 27.91 22 36.82 22 46 C26.001 46.082 30.003 46.165 34.125 46.25 C35.376 46.286 36.626 46.323 37.915 46.36 C44.232 46.423 48.285 46.404 53 42 C55.91 37.634 56.651 34.205 56 29 C53.649 24.634 51.079 20.972 46.2 19.432 C43.682 18.938 41.363 18.887 38.797 18.902 C37.914 18.905 37.03 18.907 36.12 18.91 C35.008 18.919 33.896 18.928 32.75 18.938 C30.976 18.948 30.976 18.948 22 19 Z " fill="#231F20" transform="translate(1088,1312)"/>
<path d="M0 0 C57.75 0 57.75 0 69 9 C70.73 11.148 70.73 11.148 72.188 13.375 C72.676 14.105 73.165 14.834 73.668 15.586 C78.308 23.995 78.107 34.29 76.57 43.605 C74.395 50.332 69.106 56.019 63.062 59.5 C62.052 59.995 61.041 60.49 60 61 C61.678 66.782 64.352 71.964 67.062 77.312 C67.547 78.276 68.031 79.24 68.531 80.233 C72.035 87.177 75.634 94.067 79.358 100.896 C82 105.789 82 105.789 82 108 C73.75 108 65.5 108 57 108 C49.603 94.171 42.681 80.187 36 66 C33.69 65.835 33.69 65.835 22 65 C22 79.19 22 93.38 22 108 C14.74 108 7.48 108 0 108 C0 72.36 0 36.72 0 0 Z M22 19 C22 27.91 22 36.82 22 46 C23.928 46.031 23.928 46.031 33.688 46.188 C34.895 46.215 36.102 46.242 37.346 46.27 C38.308 46.278 39.271 46.285 40.262 46.293 C41.241 46.309 42.22 46.324 43.229 46.341 C47.599 45.803 50.19 43.81 53.25 40.75 C55.464 37.271 56 35.135 56 31 C54.71 26.183 52.894 23.297 48.559 20.777 C43.3 18.318 38.196 18.557 32.5 18.75 C30.768 18.791 30.768 18.791 22 19 Z " fill="#231F20" transform="translate(490,1312)"/>
<path d="M0 0 C57.394 0 57.394 0 68 10 C78.171 20.313 78.567 33.87 78.547 47.504 C78.543 47.997 78.543 47.997 78.521 50.493 C78.5 53.495 78.521 56.494 78.547 59.496 C78.567 73.327 78.038 86.405 68 97 C67.743 97.277 67.743 97.277 66.445 98.676 C50.319 114.223 17.095 108 0 108 C0 72.36 0 36.72 0 0 Z M21 19 C21 41.77 21 64.54 21 88 C44.229 88 44.229 88 50.75 82.812 C55.507 76.866 56.459 70.768 56.398 63.406 C56.4 63.011 56.4 63.011 56.407 61.009 C56.409 59.349 56.404 57.688 56.391 56.028 C56.375 53.506 56.391 50.986 56.41 48.465 C56.408 46.841 56.404 45.217 56.398 43.594 C56.405 42.851 56.411 42.108 56.417 41.342 C56.331 34.834 54.886 29.425 50.812 24.188 C41.357 16.833 33.207 19 21 19 Z " fill="#231F20" transform="translate(227,1312)"/>
<path d="M0 0 C0.83 0.008 1.66 0.017 2.515 0.025 C14.491 0.354 23.004 4.728 31.375 13.211 C40.663 24.218 40.262 38.346 40.146 51.93 C40.125 54.932 40.146 57.932 40.172 60.934 C40.192 74.565 39.794 88.132 29.625 98.438 C19.956 107.616 10.084 110.102 -2.956 109.974 C-15.5 109.495 -23.844 104.503 -32.375 95.438 C-44.35 81.006 -41.36 54.931 -40.066 37.508 C-38.966 25.992 -35.92 17.426 -27.375 9.438 C-19.097 2.749 -10.601 -0.138 0 0 Z M-13.25 25.312 C-21.981 38.152 -19.465 60.196 -17.75 75.062 C-16.711 80.47 -14.753 84.06 -10.375 87.438 C-5.373 90.515 -1.404 90.816 4.262 90.008 C9.212 88.813 11.888 86.393 14.938 82.438 C20.832 71.959 18.886 55.78 18.375 44.125 C18.349 43.368 18.322 42.611 18.295 41.832 C17.932 35.374 16.495 29.775 12.375 24.625 C8.616 21.635 4.96 19.797 0.188 19.062 C-5.084 19.834 -9.667 21.2 -13.25 25.312 Z " fill="#231F20" transform="translate(153.375,1310.5625)"/>
<path d="M0 0 C23.76 0 47.52 0 72 0 C72 6.27 72 12.54 72 19 C55.5 19 39 19 22 19 C22 26.92 22 34.84 22 43 C35.86 43 49.72 43 64 43 C64 49.6 64 56.2 64 63 C50.14 63 36.28 63 22 63 C22 71.25 22 79.5 22 88 C38.5 88 55 88 72 88 C72 94.6 72 101.2 72 108 C48.24 108 24.48 108 0 108 C0 72.36 0 36.72 0 0 Z " fill="#231F20" transform="translate(338,1312)"/>
<path d="M0 0 C23.43 0 46.86 0 71 0 C71 6.27 71 12.54 71 19 C54.83 19 38.66 19 22 19 C22 26.92 22 34.84 22 43 C35.86 43 49.72 43 64 43 C64 49.6 64 56.2 64 63 C50.14 63 36.28 63 22 63 C22 71.25 22 79.5 22 88 C38.17 88 54.34 88 71 88 C71 94.6 71 101.2 71 108 C47.57 108 24.14 108 0 108 C0 72.36 0 36.72 0 0 Z " fill="#231F20" transform="translate(601,1312)"/>
<path d="M0 0 C23.43 0 46.86 0 71 0 C71 6.27 71 12.54 71 19 C54.5 19 38 19 21 19 C21 26.92 21 34.84 21 43 C35.19 43 49.38 43 64 43 C64 49.6 64 56.2 64 63 C49.81 63 35.62 63 21 63 C21 71.25 21 79.5 21 88 C37.5 88 54 88 71 88 C71 94.6 71 101.2 71 108 C47.57 108 24.14 108 0 108 C0 72.36 0 36.72 0 0 Z " fill="#231F20" transform="translate(985,1312)"/>
<path d="M0 0 C0.829 0.008 1.659 0.015 2.513 0.023 C13.872 0.327 22.685 4.205 30.531 12.438 C35.87 18.771 39.625 26.039 39.625 34.438 C19.66 36.084 19.66 36.084 15.004 32.316 C13.562 29.625 13.562 29.625 12.652 26.918 C11.297 23.646 9.792 22.909 6.625 21.438 C1.243 19.911 -3.536 20.184 -8.652 22.422 C-12.871 24.909 -15.052 28.857 -16.375 33.438 C-18.512 48.572 -20.23 68.794 -13.75 83 C-9.698 87.159 -5.612 89.118 0.125 89.938 C6.094 89.085 10.228 87.202 14 82.438 C15.252 80.127 16.45 77.788 17.625 75.438 C24.885 75.438 32.145 75.438 39.625 75.438 C38.013 86.721 33.64 95.4 24.848 102.828 C14.592 110.254 2.8 110.392 -9.375 109.438 C-19.386 107.433 -27.377 101.514 -33.836 93.758 C-44.789 77.244 -41.894 48.459 -39.059 29.688 C-36.701 18.478 -30.351 11.078 -20.977 4.762 C-14.11 1.267 -7.675 -0.099 0 0 Z " fill="#231F20" transform="translate(47.375,1310.5625)"/>
<path d="M0 0 C23.43 0 46.86 0 71 0 C71 6.27 71 12.54 71 19 C54.83 19 38.66 19 22 19 C22 27.58 22 36.16 22 45 C35.86 45 49.72 45 64 45 C64 51.27 64 57.54 64 64 C50.14 64 36.28 64 22 64 C22 78.52 22 93.04 22 108 C14.74 108 7.48 108 0 108 C0 72.36 0 36.72 0 0 Z " fill="#231F20" transform="translate(705,1312)"/>
<path d="M0 0 C7.92 0 15.84 0 24 0 C30.518 12.914 36.79 25.935 43 39 C46.082 35.347 47.853 31.274 49.793 26.953 C50.144 26.182 50.495 25.411 50.856 24.616 C51.971 22.163 53.079 19.706 54.188 17.25 C54.944 15.582 55.701 13.914 56.459 12.246 C58.312 8.167 60.156 4.083 62 0 C69.92 0 77.84 0 86 0 C83.75 6.751 83.75 6.751 82.188 9.868 C81.84 10.567 81.492 11.266 81.133 11.986 C80.759 12.727 80.385 13.467 80 14.23 C79.605 15.02 79.21 15.81 78.802 16.624 C77.964 18.298 77.123 19.972 76.281 21.644 C75.028 24.132 73.781 26.623 72.535 29.115 C72.331 29.521 72.331 29.521 71.301 31.574 C70.47 33.23 69.644 34.889 68.822 36.55 C66.757 40.688 64.612 44.705 62.184 48.642 C54.531 61.327 53.601 72.055 53.875 86.688 C53.877 88.769 53.874 90.85 53.867 92.932 C53.851 97.958 53.927 102.971 54 108 C46.74 108 39.48 108 32 108 C32.16 105.143 32.32 102.287 32.484 99.344 C33.571 70.781 28.276 50.987 13.68 26.565 C10.754 21.645 8.063 16.611 5.402 11.543 C4.975 10.732 4.547 9.922 4.106 9.087 C2.526 6.063 1.081 3.244 0 0 Z " fill="#231F20" transform="translate(1187,1312)"/>
<path d="M0 0 C7.26 0 14.52 0 22 0 C22 35.64 22 71.28 22 108 C14.74 108 7.48 108 0 108 C0 72.36 0 36.72 0 0 Z " fill="#231F20" transform="translate(806,1312)"/>
</svg>
